<svg width="250" height="57" viewBox="0 0 250 57" fill="none" xmlns="http://www.w3.org/2000/svg">
  <!-- First O with gradient -->
  <path d="M2 30C2 26.5 3.5 23.5 6 21.5C8.5 19.5 11.5 18.5 15 18.5C18.5 18.5 21.5 19.5 24 21.5C26.5 23.5 28 26.5 28 30C28 33.5 26.5 36.5 24 38.5C21.5 40.5 18.5 41.5 15 41.5C11.5 41.5 8.5 40.5 6 38.5C3.5 36.5 2 33.5 2 30ZM8 30C8 32 9 33.5 10.5 34.5C12 35.5 13.5 36 15 36C16.5 36 18 35.5 19.5 34.5C21 33.5 22 32 22 30C22 28 21 26.5 19.5 25.5C18 24.5 16.5 24 15 24C13.5 24 12 24.5 10.5 25.5C9 26.5 8 28 8 30Z" fill="url(#paint0_linear)"/>

  <!-- D -->
  <path d="M35 19H46C50 19 54 20.5 56 23C58 25.5 60 28.5 60 31C60 33.5 58.5 36.5 56 38.5C53.5 40.5 50.5 41.5 46 41.5H35V19Z" fill="white"/>
  
  <!-- H -->
  <path d="M49 19H58V37H49V19Z" fill="white"/>
  
  <!-- I -->
  <path d="M61 19H67V37H61V19Z" fill="white"/>
  
  <!-- A -->
  <path d="M70 37L76 19H82L88 37H82L80 29H76L72 37H70Z" fill="white"/>
  
  <!-- M -->
  <path d="M91 19H96L96 37H91L86 29V37H80L77 19H91Z" fill="white"/>
  
  <!-- B -->
  <path d="M99 19H108C110.5 19 113 20.5 113 23C113 25.5 111.5 28.5 108 30C104.5 31.5 100.5 33 99 30.5V19Z" fill="white"/>
  
  <!-- O -->
  <path d="M120 30C120 26.5 121.5 23.5 124 21.5C126.5 19.5 129.5 18.5 133 18.5C136.5 18.5 139.5 19.5 142 21.5C144.5 23.5 146 26.5 146 30C146 33.5 144.5 36.5 142 38.5C139.5 40.5 136.5 41.5 133 41.5C129.5 41.5 126.5 40.5 124 38.5C121.5 36.5 120 33.5 120 30Z" fill="url(#paint1_linear)"/>

  <!-- Gradients -->
  <defs>
    <linearGradient id="paint0_linear" x1="2" y1="18.5" x2="28" y2="41.5" gradientUnits="userSpaceOnUse">
      <stop stop-color="#FF69B4"/>
      <stop offset="1" stop-color="#9370DB"/>
    </linearGradient>
    <linearGradient id="paint1_linear" x1="120" y1="18.5" x2="146" y2="41.5" gradientUnits="userSpaceOnUse">
      <stop stop-color="#FF69B4"/>
      <stop offset="1" stop-color="#9370DB"/>
    </linearGradient>
  </defs>
</svg>
